<?xml version="1.0" encoding="UTF-8"?>
<svg version="1.1" xmlns="http://www.w3.org/2000/svg" width="512" height="512">
<path d="M0 0 C14.50331854 12.31271314 19.48514097 28.5902549 21 47 C21.0721875 47.87011719 21.144375 48.74023438 21.21875 49.63671875 C21.82289822 64.86628849 16.87423231 79.09588484 6.6875 90.3125 C-3.35035759 100.88543906 -13.69426002 106.96517383 -27.8828125 110.421875 C-29.96872968 110.80344039 -29.96872968 110.80344039 -31 112 C-30.03513672 112.76570313 -30.03513672 112.76570313 -29.05078125 113.546875 C-21.95109998 119.2590294 -15.18707462 125.24041264 -8.57568359 131.5078125 C-7.08520028 132.91931452 -5.58392495 134.31939523 -4.08203125 135.71875 C16.5451614 155.5022352 27.0223164 180.84686727 28.12890625 209.31640625 C28.5561848 234.81069315 20.51959003 256.68533834 4 276 C3.56042969 276.56074219 3.12085938 277.12148438 2.66796875 277.69921875 C-16.50800359 302.13415341 -52.04598844 316.41841197 -81.99609375 320.65625 C-82.98738281 320.7696875 -83.97867188 320.883125 -85 321 C-86.12535156 321.1340625 -87.25070313 321.268125 -88.41015625 321.40625 C-115.22783735 323.84674218 -144.705583 319.88486797 -166.5 303 C-168.01963645 301.68909083 -169.52091337 300.35649567 -171 299 C-172.05767578 298.06220703 -172.05767578 298.06220703 -173.13671875 297.10546875 C-187.53749098 283.63731796 -194.49380022 264.22643909 -195.31640625 244.8671875 C-195.78905834 226.55057629 -193.71347613 211.3403797 -185 195 C-184.45214844 193.97132813 -183.90429688 192.94265625 -183.33984375 191.8828125 C-175.29610832 177.48104474 -164.26386887 162.9877921 -148.16796875 157.359375 C-144.82910962 156.80590646 -141.49984225 156.77476948 -138.125 156.75 C-137.08279297 156.7190625 -137.08279297 156.7190625 -136.01953125 156.6875 C-131.25925891 156.65164107 -127.94194799 157.29358795 -124 160 C-117.90125386 170.06639633 -124.28529593 187.54849087 -126.828125 197.94995117 C-127.09109375 199.01963135 -127.3540625 200.08931152 -127.625 201.19140625 C-131.38265327 216.72917974 -132.91402963 236.17069956 -124.625 250.5 C-119.92208774 257.19473392 -113.87152043 260.17268276 -106 262 C-89.93422198 263.51031591 -73.77155 260.53038329 -60.625 250.6875 C-50.16190302 239.97528166 -47.58342961 227.62558667 -47.7265625 213.01171875 C-48.9465554 187.95354768 -69.86020832 169.03179918 -87 153 C-89.74331902 150.59576102 -92.59881435 148.34319501 -95.4609375 146.08203125 C-115.85647849 129.35768764 -133.06039482 104.62713334 -136 78 C-137.93099688 53.35040508 -131.85570503 30.57406239 -115.94921875 11.546875 C-87.48416653 -19.11604378 -33.72455653 -25.34611202 0 0 Z M-84 43 C-81.30430981 56.2538101 -74.99632608 68.90517516 -66 79 C-65.25363281 79.84175781 -64.50726563 80.68351562 -63.73828125 81.55078125 C-62.19085676 83.27724659 -60.6351431 84.99632661 -59.0703125 86.70703125 C-57.39921423 88.55785141 -55.80792355 90.43004513 -54.25 92.375 C-52.0290327 94.96612851 -49.73385391 96.9691371 -47 99 C-42.73052506 97.44019182 -40.38717895 94.22550811 -37.6875 90.75 C-37.20474609 90.12955811 -36.72199219 89.50911621 -36.22460938 88.86987305 C-26.46657432 75.95415609 -21.75851024 62.58841454 -21.50390625 46.48046875 C-22.18881442 41.6753256 -24.15874392 38.62014455 -27.7890625 35.42578125 C-46.31503309 24.19194802 -69.34957461 26.93179151 -84 43 Z " fill="#209CEE" transform="translate(340,103)"/>
</svg>
